G04 DipTrace 3.3.0.1*
G04 Top.gbr*
%MOMM*%
G04 #@! TF.FileFunction,Copper,L1,Top*
G04 #@! TF.Part,Single*
%AMOUTLINE0*
4,1,4,
0.74947,-0.85047,
-0.75053,-0.8495,
-0.74947,0.85047,
0.75053,0.8495,
0.74947,-0.85047,
0*%
%AMOUTLINE3*
4,1,4,
-1.0253,0.10607,
-0.10607,1.0253,
1.0253,-0.10607,
0.10607,-1.0253,
-1.0253,0.10607,
0*%
%AMOUTLINE6*
4,1,4,
-0.65,0.8,
0.65,0.8,
0.65,-0.8,
-0.65,-0.8,
-0.65,0.8,
0*%
%AMOUTLINE9*
4,1,4,
-0.10607,-1.0253,
-1.0253,-0.10607,
0.10607,1.0253,
1.0253,0.10607,
-0.10607,-1.0253,
0*%
%AMOUTLINE12*
4,1,4,
-0.80003,-0.64997,
-0.79997,0.65003,
0.80003,0.64997,
0.79997,-0.65003,
-0.80003,-0.64997,
0*%
%AMOUTLINE15*
4,1,4,
1.0253,-0.10607,
0.10607,-1.0253,
-1.0253,0.10607,
-0.10607,1.0253,
1.0253,-0.10607,
0*%
%AMOUTLINE18*
4,1,4,
0.65,-0.8,
-0.65,-0.8,
-0.65,0.8,
0.65,0.8,
0.65,-0.8,
0*%
%AMOUTLINE21*
4,1,4,
0.10607,1.0253,
1.0253,0.10607,
-0.10607,-1.0253,
-1.0253,-0.10607,
0.10607,1.0253,
0*%
%AMOUTLINE24*
4,1,4,
0.7499,-0.65017,
-0.75013,-0.64983,
-0.7499,0.65017,
0.75013,0.64983,
0.7499,-0.65017,
0*%
%AMOUTLINE27*
4,1,4,
0.15107,-0.9809,
-0.99243,-0.01013,
-0.15107,0.9809,
0.99243,0.01013,
0.15107,-0.9809,
0*%
%AMOUTLINE30*
4,1,4,
-0.9899,-0.07107,
0.07033,0.98997,
0.9899,0.07107,
-0.07033,-0.98997,
-0.9899,-0.07107,
0*%
%AMOUTLINE33*
4,1,4,
-0.51987,-0.33313,
-0.53,0.3168,
0.51987,0.33313,
0.53,-0.3168,
-0.51987,-0.33313,
0*%
%AMOUTLINE36*
4,1,4,
1.37577,0.49797,
1.37427,-0.50207,
-1.37577,-0.49797,
-1.37427,0.50207,
1.37577,0.49797,
0*%
%AMOUTLINE39*
4,1,4,
3.0791,2.77043,
3.0709,-2.77957,
-3.0791,-2.77043,
-3.0709,2.77957,
3.0791,2.77043,
0*%
%ADD26C,1.2*%
%ADD29C,0.9*%
G04 #@! TA.AperFunction,Conductor*
%ADD13C,0.4*%
%ADD14C,0.33*%
%ADD15C,0.35*%
%ADD16R,1.6X1.3*%
%ADD17R,1.5X1.3*%
%ADD18R,1.3X1.5*%
G04 #@! TA.AperFunction,ComponentPad*
%ADD20C,1.5*%
%ADD22R,1.9X3.4*%
%ADD24R,2.5X1.4*%
G04 #@! TA.AperFunction,ViaPad*
%ADD25C,2.4*%
%ADD46OUTLINE0*%
%ADD49OUTLINE3*%
%ADD52OUTLINE6*%
%ADD55OUTLINE9*%
%ADD58OUTLINE12*%
%ADD61OUTLINE15*%
%ADD64OUTLINE18*%
%ADD67OUTLINE21*%
%ADD70OUTLINE24*%
%ADD73OUTLINE27*%
%ADD76OUTLINE30*%
%ADD79OUTLINE33*%
%ADD82OUTLINE36*%
%ADD85OUTLINE39*%
%FSLAX35Y35*%
G04*
G71*
G90*
G75*
G01*
G04 Top*
%LPD*%
X158733Y-1650827D2*
D13*
X158187Y-1392130D1*
X-1492250Y1682750D2*
D14*
X-1476043D1*
D13*
X-920653Y2238140D1*
X-141237D1*
D14*
X-127000Y2252377D1*
X-1455057Y1291323D2*
D13*
X-1470637D1*
X-1952627Y809333D1*
Y127000D1*
X-460373Y-2222500D2*
X-127000D1*
D14*
Y-2236500D1*
X-2236500Y-127000D2*
D13*
Y-938500D1*
X-1666877Y-1508123D1*
X1501133Y571440D2*
D14*
X1507967D1*
D13*
Y-285720D1*
X539693Y-1253993D1*
Y-1650827D1*
X-460373Y555627D2*
X-333400D1*
X-158733Y380960D1*
Y-253973D1*
X79423Y-492130D1*
X158750D1*
X-460373Y555627D2*
X-476000D1*
Y229000D1*
X-794147Y206353D2*
Y217000D1*
X-476000D1*
Y229000D1*
X2252370Y-127000D2*
Y-922630D1*
X1687730Y-1487270D1*
X-127000Y1968500D2*
X-777880D1*
X-1275450Y1470930D1*
X-2236500Y127000D2*
Y922293D1*
X-1671857Y1486937D1*
Y1503143D1*
X1968500Y-127000D2*
Y-793753D1*
X1486807Y-1275447D1*
X1470930Y1291327D2*
X1534127D1*
X1968500Y856953D1*
Y127000D1*
X1682750Y1508123D2*
Y1491917D1*
X2252383Y922283D1*
Y127000D1*
X777877Y920750D2*
Y-480D1*
D14*
X777793D1*
X1307200Y-1455053D2*
D13*
Y-1502677D1*
X857250Y-1952627D1*
X127000D1*
Y1968500D2*
X428580Y1968293D1*
X774920Y1110727D2*
Y1616207D1*
X968273Y1809560D1*
X618580Y1968293D2*
D14*
Y1952420D1*
D13*
X825413D1*
X936527Y1841307D1*
Y1809560D1*
D14*
X968273D1*
X777793Y-190480D2*
D13*
Y-460807D1*
Y-190480D2*
D14*
Y-206353D1*
X841287D1*
D13*
X1111133Y63493D1*
Y571440D1*
X474000Y-221000D2*
Y-208000D1*
X777793D1*
Y-190480D1*
X-349213Y-1650827D2*
X-351817Y-1391810D1*
X1508123Y-1666877D2*
X938500Y-2236500D1*
X127000D1*
X-1143000Y-1762123D2*
X-872630Y-2032493D1*
X-460340D1*
X-459693Y1011623D2*
X546427Y1012163D1*
X-459693Y1011623D2*
D14*
Y967640D1*
D13*
X158733Y349213D1*
Y-222227D1*
X365087Y-428580D1*
Y-603187D1*
X31747Y-936527D1*
X-317467D1*
X-1142880Y-1761940D1*
D14*
X-872327Y-2032493D1*
X-460340D1*
X-429060Y1380980D2*
D13*
Y1042257D1*
D14*
X-459693Y1011623D1*
X-1487270Y-1687730D2*
D13*
X-1265960Y-1906963D1*
X127000Y2252377D2*
D15*
Y2111153D1*
X-857160D1*
X-2095500Y872813D1*
Y-857250D1*
X-1378633Y-1574117D1*
X-1275450Y-1470933D1*
X127000Y2111153D2*
X873347D1*
X1393480Y1591020D1*
X2111373Y873127D1*
Y-872813D1*
X888687Y-2095500D1*
X-127000D1*
Y-1952627D1*
X-1275450Y-1470933D2*
D13*
Y-1523840D1*
X-1142880D1*
X-365087Y-746047D1*
Y-491810D1*
X-351253D1*
X777793Y-650807D2*
X492073D1*
X-127000Y-1269880D1*
D14*
Y-1952627D1*
X-984147Y206353D2*
D13*
Y-79367D1*
X-571703Y-491810D1*
X-351253D1*
X127000Y2252377D2*
X938497D1*
X1503143Y1687730D1*
X1490190D1*
X1393480Y1591020D1*
X-984147Y206353D2*
Y638740D1*
X-1130030Y784623D1*
X-619060Y1380980D2*
X-761920D1*
X-1031767Y1111133D1*
Y882887D1*
X-1130030Y784623D1*
X-1952627Y-127000D2*
Y-793757D1*
X-1455057Y-1291327D1*
X1102667Y1675253D2*
Y1659590D1*
X1291323Y1470933D1*
D25*
X539693Y-1650827D3*
X-349213D3*
X158733D3*
D46*
X158750Y-492130D3*
X-351253Y-491810D3*
X-351817Y-1391810D3*
X158187Y-1392130D3*
D16*
X-2236500Y127000D3*
Y-127000D3*
D49*
X-1492250Y1682750D3*
X-1671857Y1503143D3*
D52*
X127000Y2252377D3*
X-127000D3*
D55*
X1503143Y1687730D3*
X1682750Y1508123D3*
D58*
X2252383Y127001D3*
X2252370Y-126999D3*
D49*
X1687730Y-1487270D3*
X1508123Y-1666877D3*
D52*
X127000Y-2236500D3*
X-127000D3*
D55*
X-1666877Y-1508123D3*
X-1487270Y-1687730D3*
D17*
X777793Y-650807D3*
Y-460807D3*
Y-190480D3*
Y-480D3*
D16*
X-1952627Y-127000D3*
Y127000D3*
D61*
X-1455057Y1291323D3*
X-1275450Y1470930D3*
D64*
X-127000Y1968500D3*
X127000D3*
D67*
X1470930Y1291327D3*
X1291323Y1470933D3*
D16*
X1968500Y-127000D3*
Y127000D3*
D49*
X1307200Y-1455053D3*
X1486807Y-1275447D3*
D52*
X-127000Y-1952627D3*
X127000D3*
D55*
X-1275450Y-1470933D3*
X-1455057Y-1291327D3*
D70*
X-460373Y-2222500D3*
X-460340Y-2032493D3*
D73*
X-1143000Y-1762123D3*
X-1265960Y-1906963D3*
D18*
X428580Y1968293D3*
X618580D3*
D76*
X968273Y1809560D3*
X1102667Y1675253D3*
D79*
X777876Y920750D3*
X774919Y1110727D3*
X546426Y1012163D3*
D20*
X0Y0D3*
D82*
X-460373Y555627D3*
X-459693Y1011623D3*
D85*
X-1130030Y784623D3*
D18*
X-984147Y206353D3*
X-794147D3*
X-619060Y1380980D3*
X-429060D3*
D22*
X1111133Y571440D3*
X1501133D3*
D24*
X-476000Y229000D3*
Y-221000D3*
X474000D3*
Y229000D3*
G04 Top Clear*
%LPC*%
D26*
X539693Y-1650827D3*
X-349213D3*
X158733D3*
D29*
X0Y0D3*
M02*
