G04 DipTrace 3.3.0.1*
G04 TopPaste.gbr*
%MOMM*%
G04 #@! TF.FileFunction,Paste,Top*
G04 #@! TF.Part,Single*
%AMOUTLINE2*
4,1,4,
0.64953,-0.7504,
-0.65047,-0.74956,
-0.64953,0.7504,
0.65047,0.74956,
0.64953,-0.7504,
0*%
%AMOUTLINE5*
4,1,4,
-0.88388,0.10607,
-0.10607,0.88388,
0.88388,-0.10607,
0.10607,-0.88388,
-0.88388,0.10607,
0*%
%AMOUTLINE8*
4,1,4,
-0.55,0.7,
0.55,0.7,
0.55,-0.7,
-0.55,-0.7,
-0.55,0.7,
0*%
%AMOUTLINE11*
4,1,4,
-0.10607,-0.88388,
-0.88388,-0.10607,
0.10607,0.88388,
0.88388,0.10607,
-0.10607,-0.88388,
0*%
%AMOUTLINE14*
4,1,4,
-0.70003,-0.54997,
-0.69997,0.55003,
0.70003,0.54997,
0.69997,-0.55003,
-0.70003,-0.54997,
0*%
%AMOUTLINE17*
4,1,4,
0.88388,-0.10607,
0.10607,-0.88388,
-0.88388,0.10607,
-0.10607,0.88388,
0.88388,-0.10607,
0*%
%AMOUTLINE20*
4,1,4,
0.55,-0.7,
-0.55,-0.7,
-0.55,0.7,
0.55,0.7,
0.55,-0.7,
0*%
%AMOUTLINE23*
4,1,4,
0.10607,0.88388,
0.88388,0.10607,
-0.10607,-0.88388,
-0.88388,-0.10607,
0.10607,0.88388,
0*%
%AMOUTLINE26*
4,1,4,
0.64992,-0.55014,
-0.65012,-0.54986,
-0.64992,0.55014,
0.65012,0.54986,
0.64992,-0.55014,
0*%
%AMOUTLINE29*
4,1,4,
0.13955,-0.83995,
-0.85148,0.00138,
-0.13955,0.83995,
0.85148,-0.00138,
0.13955,-0.83995,
0*%
%AMOUTLINE32*
4,1,4,
-0.84848,-0.07101,
0.07039,0.84854,
0.84848,0.07101,
-0.07039,-0.84854,
-0.84848,-0.07101,
0*%
%AMOUTLINE35*
4,1,4,
-0.42144,-0.23159,
-0.42845,0.21837,
0.42144,0.23159,
0.42845,-0.21837,
-0.42144,-0.23159,
0*%
%AMOUTLINE38*
4,1,4,
1.27562,0.39812,
1.27442,-0.40192,
-1.27562,-0.39812,
-1.27442,0.40192,
1.27562,0.39812,
0*%
%AMOUTLINE41*
4,1,4,
2.97895,2.67058,
2.97105,-2.67942,
-2.97895,-2.67058,
-2.97105,2.67942,
2.97895,2.67058,
0*%
%ADD33R,2.3X1.2*%
%ADD35R,1.7X3.2*%
%ADD39R,1.1X1.3*%
%ADD41R,1.3X1.1*%
%ADD43R,1.4X1.1*%
%ADD48OUTLINE2*%
%ADD51OUTLINE5*%
%ADD54OUTLINE8*%
%ADD57OUTLINE11*%
%ADD60OUTLINE14*%
%ADD63OUTLINE17*%
%ADD66OUTLINE20*%
%ADD69OUTLINE23*%
%ADD72OUTLINE26*%
%ADD75OUTLINE29*%
%ADD78OUTLINE32*%
%ADD81OUTLINE35*%
%ADD84OUTLINE38*%
%ADD87OUTLINE41*%
%ADD45C,0.39216*%
%FSLAX35Y35*%
G04*
G71*
G90*
G75*
G01*
G04 TopPaste*
%LPD*%
D48*
X158750Y-492130D3*
X-351253Y-491810D3*
X-351817Y-1391810D3*
X158187Y-1392130D3*
D43*
X-2236500Y127000D3*
Y-127000D3*
D51*
X-1492250Y1682750D3*
X-1671857Y1503143D3*
D54*
X127000Y2252377D3*
X-127000D3*
D57*
X1503143Y1687730D3*
X1682750Y1508123D3*
D60*
X2252383Y127001D3*
X2252370Y-126999D3*
D51*
X1687730Y-1487270D3*
X1508123Y-1666877D3*
D54*
X127000Y-2236500D3*
X-127000D3*
D57*
X-1666877Y-1508123D3*
X-1487270Y-1687730D3*
D41*
X777793Y-650807D3*
Y-460807D3*
Y-190480D3*
Y-480D3*
D43*
X-1952627Y-127000D3*
Y127000D3*
D63*
X-1455057Y1291323D3*
X-1275450Y1470930D3*
D66*
X-127000Y1968500D3*
X127000D3*
D69*
X1470930Y1291327D3*
X1291323Y1470933D3*
D43*
X1968500Y-127000D3*
Y127000D3*
D51*
X1307200Y-1455053D3*
X1486807Y-1275447D3*
D54*
X-127000Y-1952627D3*
X127000D3*
D57*
X-1275450Y-1470933D3*
X-1455057Y-1291327D3*
D72*
X-460373Y-2222500D3*
X-460340Y-2032493D3*
D75*
X-1143000Y-1762123D3*
X-1265960Y-1906963D3*
D39*
X428580Y1968293D3*
X618580D3*
D78*
X968273Y1809560D3*
X1102667Y1675253D3*
D81*
X777876Y920750D3*
X774919Y1110727D3*
X546426Y1012163D3*
D84*
X-460373Y555627D3*
X-459693Y1011623D3*
D87*
X-1130030Y784623D3*
D39*
X-984147Y206353D3*
X-794147D3*
X-619060Y1380980D3*
X-429060D3*
D35*
X1111133Y571440D3*
X1501133D3*
D33*
X-476000Y229000D3*
Y-221000D3*
X474000D3*
Y229000D3*
X-1868000Y-425615D2*
D45*
Y-595762D1*
Y-474188D2*
X-1831500Y-437688D1*
X-1807073Y-425615D1*
X-1770854D1*
X-1746427Y-437688D1*
X-1734354Y-474188D1*
Y-595762D1*
Y-474188D2*
X-1697854Y-437688D1*
X-1673427Y-425615D1*
X-1637208D1*
X-1612781Y-437688D1*
X-1600427Y-474188D1*
Y-595762D1*
X-1521996Y-498615D2*
X-1376276D1*
Y-474188D1*
X-1388349Y-449762D1*
X-1400422Y-437688D1*
X-1424849Y-425615D1*
X-1461349D1*
X-1485496Y-437688D1*
X-1509922Y-462115D1*
X-1521996Y-498615D1*
Y-522762D1*
X-1509922Y-559262D1*
X-1485496Y-583408D1*
X-1461349Y-595762D1*
X-1424849D1*
X-1400422Y-583408D1*
X-1376276Y-559262D1*
X-1297845Y-340542D2*
Y-595762D1*
X-1176272Y-425615D2*
X-1297845Y-547188D1*
X-1249272Y-498615D2*
X-1164199Y-595762D1*
M02*
