G04 DipTrace 3.3.0.1*
G04 TopSilk.gbr*
%MOMM*%
G04 #@! TF.FileFunction,Legend,Top*
G04 #@! TF.Part,Single*
%ADD10C,0.25*%
%ADD19O,0.39123X0.39172*%
%ADD21C,0.39165*%
%ADD23O,0.5004X0.49978*%
%ADD44C,0.19608*%
%FSLAX35Y35*%
G04*
G71*
G90*
G75*
G01*
G04 TopSilk*
%LPD*%
X153617Y-692243D2*
D10*
X153534Y-792112D1*
X203647Y-742124D2*
X103587Y-742017D1*
X-346351Y-691814D2*
X-346434Y-791791D1*
X-355341Y-1074273D2*
G02X-355424Y-1140425I-19456J-33051D01*
G01*
X319274Y-1252283D2*
X-512757Y-1251748D1*
X-512340Y-631657D1*
X319690Y-632192D1*
X319440Y-892196D1*
X-355424Y-1140425D2*
G03X-355424Y-1206362I24731J-32969D01*
G01*
X144626Y-1074594D2*
G02X144626Y-1140746I-19330J-33076D01*
G01*
G03X144543Y-1206790I24693J-33053D01*
G01*
X319440Y-992172D2*
X319274Y-1252283D1*
X319440Y-892196D2*
G03X319440Y-992172I-951J-49988D01*
G01*
X-2347625Y-222253D2*
X-2125375D1*
Y190509D1*
X-2347625Y-222253D2*
Y190509D1*
X-1817787Y1514370D2*
X-1660630Y1357213D1*
X-1368767Y1649076D1*
X-1817787Y1514370D2*
X-1525924Y1806233D1*
X-222253Y2363502D2*
Y2141252D1*
X190509D1*
X-222253Y2363502D2*
X190509D1*
X1671523Y1362193D2*
X1828680Y1519350D1*
X1536817Y1811213D1*
X1671523Y1362193D2*
X1379660Y1654056D1*
X2141242Y-222258D2*
X2363489D1*
X2363512Y190514D1*
X2141242Y-222258D2*
X2141264Y190514D1*
X1362193Y-1655650D2*
X1519350Y-1812807D1*
X1811213Y-1520944D1*
X1362193Y-1655650D2*
X1654056Y-1363787D1*
X-222253Y-2125375D2*
Y-2347625D1*
X190509D1*
X-222253Y-2125375D2*
X190509D1*
X-1498497Y-1833660D2*
X-1341340Y-1676503D1*
X-1633203Y-1384640D1*
X-1498497Y-1833660D2*
X-1790360Y-1541797D1*
X-1841502Y222253D2*
X-2063752D1*
Y-190509D1*
X-1841502Y222253D2*
Y-190509D1*
X-1129520Y1459703D2*
X-1286677Y1616860D1*
X-1578540Y1324997D1*
X-1129520Y1459703D2*
X-1421383Y1167840D1*
X222253Y1857375D2*
Y2079625D1*
X-190509D1*
X222253Y1857375D2*
X-190509D1*
X1302550Y1616863D2*
X1145393Y1459706D1*
X1437256Y1167843D1*
X1302550Y1616863D2*
X1594413Y1325000D1*
X2079625Y222253D2*
X1857375D1*
Y-190509D1*
X2079625Y222253D2*
Y-190509D1*
X1632737Y-1286674D2*
X1475580Y-1129517D1*
X1183717Y-1421380D1*
X1632737Y-1286674D2*
X1340874Y-1578537D1*
X222253Y-2063752D2*
Y-1841502D1*
X-190509D1*
X222253Y-2063752D2*
X-190509D1*
X-1443830Y-1145397D2*
X-1600987Y-1302554D1*
X-1309124Y-1594417D1*
X-1443830Y-1145397D2*
X-1151967Y-1437260D1*
D19*
X816451Y842984D3*
X688734Y864377D2*
D10*
X684075Y1164322D1*
X634092Y1163538D1*
X638751Y863593D1*
X688734Y864377D1*
X-640574Y453833D2*
X-639570Y1113866D1*
X-1340642Y454851D2*
X-640574Y453833D1*
X-1340642Y454851D2*
X-1340419Y474941D1*
X-1339526Y1114952D2*
X-639570Y1113866D1*
X-1339526Y1114952D2*
X-1339638Y1094930D1*
D21*
X-348619Y455835D3*
X-1089200Y141403D2*
D10*
Y271303D1*
X-724113Y1316030D2*
Y1445930D1*
X1235953Y731580D2*
X1376313D1*
X1235953Y411300D2*
X1376313D1*
X1256369D2*
Y731580D1*
X1237171Y411300D2*
Y731580D1*
X-301000Y303973D2*
X299000D1*
Y-296000D1*
X-301000D1*
Y303973D1*
X-100960Y3987D2*
X-100717Y10963D1*
X-99987Y17906D1*
X-98776Y24781D1*
X-97088Y31555D1*
X-94932Y38194D1*
X-92318Y44667D1*
X-89259Y50941D1*
X-85771Y56987D1*
X-81869Y62774D1*
X-77574Y68275D1*
X-72905Y73463D1*
X-67886Y78313D1*
X-62542Y82800D1*
X-56897Y86903D1*
X-50980Y90603D1*
X-44820Y93880D1*
X-38446Y96719D1*
X-31889Y99107D1*
X-25183Y101031D1*
X-18358Y102483D1*
X-11449Y103454D1*
X-4489Y103941D1*
X2489D1*
X9449Y103454D1*
X16358Y102483D1*
X23183Y101031D1*
X29889Y99107D1*
X36446Y96719D1*
X42820Y93880D1*
X48980Y90603D1*
X54897Y86903D1*
X60542Y82800D1*
X65886Y78313D1*
X70905Y73463D1*
X75574Y68275D1*
X79869Y62774D1*
X83771Y56987D1*
X87259Y50941D1*
X90318Y44667D1*
X92932Y38194D1*
X95088Y31555D1*
X96776Y24781D1*
X97987Y17906D1*
X98717Y10963D1*
X98960Y3987D1*
X98717Y-2990D1*
X97987Y-9933D1*
X96776Y-16808D1*
X95088Y-23581D1*
X92932Y-30221D1*
X90318Y-36693D1*
X87259Y-42968D1*
X83771Y-49014D1*
X79869Y-54801D1*
X75574Y-60302D1*
X70905Y-65490D1*
X65886Y-70339D1*
X60542Y-74827D1*
X54897Y-78930D1*
X48980Y-82629D1*
X42820Y-85907D1*
X36446Y-88746D1*
X29889Y-91134D1*
X23183Y-93058D1*
X16358Y-94509D1*
X9449Y-95481D1*
X2489Y-95968D1*
X-4489D1*
X-11449Y-95481D1*
X-18358Y-94509D1*
X-25183Y-93058D1*
X-31889Y-91134D1*
X-38446Y-88746D1*
X-44820Y-85907D1*
X-50980Y-82629D1*
X-56897Y-78930D1*
X-62542Y-74827D1*
X-67886Y-70339D1*
X-72905Y-65490D1*
X-77574Y-60302D1*
X-81869Y-54801D1*
X-85771Y-49014D1*
X-89259Y-42968D1*
X-92318Y-36693D1*
X-94932Y-30221D1*
X-97088Y-23581D1*
X-98776Y-16808D1*
X-99987Y-9933D1*
X-100717Y-2990D1*
X-100960Y3987D1*
D23*
X-545980Y119032D3*
X-698743Y-1046651D2*
D44*
X-571134D1*
X-571133Y-1004114D1*
X-577310Y-985864D1*
X-589383Y-973651D1*
X-601597Y-967614D1*
X-619707Y-961578D1*
X-650170D1*
X-668420Y-967614D1*
X-680493Y-973651D1*
X-692707Y-985864D1*
X-698743Y-1004114D1*
Y-1046651D1*
X-668280Y-916185D2*
X-674316D1*
X-686530Y-910148D1*
X-692566Y-904112D1*
X-698603Y-891899D1*
Y-867612D1*
X-692566Y-855539D1*
X-686530Y-849502D1*
X-674316Y-843325D1*
X-662243Y-843326D1*
X-650030Y-849502D1*
X-631920Y-861576D1*
X-571134Y-922362D1*
Y-837289D1*
X-2533612Y-272759D2*
X-2406002D1*
Y-199899D1*
X-2533611Y-81787D2*
Y-160683D1*
X-2406002Y-160684D1*
Y-81788D1*
X-2472825Y-160684D2*
Y-112111D1*
X-2533611Y-42572D2*
X-2406002D1*
Y-35D1*
X-2412179Y18215D1*
X-2424252Y30428D1*
X-2436465Y36465D1*
X-2454575Y42501D1*
X-2485038D1*
X-2503288Y36465D1*
X-2515361Y30428D1*
X-2527575Y18215D1*
X-2533611Y-35D1*
Y-42572D1*
X-2509185Y81717D2*
X-2515361Y93930D1*
X-2533471Y112180D1*
X-2406002D1*
Y212183D2*
X-2533471D1*
X-2448538Y151396D1*
Y242506D1*
X-1847891Y1992220D2*
Y1864610D1*
X-1775031D1*
X-1656919Y1992220D2*
X-1735815D1*
Y1864610D1*
X-1656919D1*
X-1735815Y1931433D2*
X-1687242D1*
X-1617704Y1992220D2*
Y1864610D1*
X-1575167D1*
X-1556917Y1870787D1*
X-1544704Y1882860D1*
X-1538667Y1895074D1*
X-1532631Y1913183D1*
Y1943647D1*
X-1538667Y1961897D1*
X-1544704Y1973970D1*
X-1556917Y1986183D1*
X-1575167Y1992220D1*
X-1617704D1*
X-1493415Y1967793D2*
X-1481201Y1973970D1*
X-1462951Y1992080D1*
Y1864610D1*
X-1350876Y1992080D2*
X-1411522D1*
X-1417559Y1937470D1*
X-1411522Y1943506D1*
X-1393272Y1949683D1*
X-1375163D1*
X-1356913Y1943506D1*
X-1344699Y1931433D1*
X-1338663Y1913183D1*
Y1901110D1*
X-1344699Y1882860D1*
X-1356913Y1870647D1*
X-1375163Y1864610D1*
X-1393272D1*
X-1411522Y1870647D1*
X-1417559Y1876824D1*
X-1423736Y1888897D1*
X-266652Y2549488D2*
Y2421879D1*
X-193793D1*
X-75681Y2549488D2*
X-154577D1*
Y2421879D1*
X-75681D1*
X-154577Y2488702D2*
X-106004D1*
X-36465Y2549488D2*
Y2421879D1*
X6071D1*
X24321Y2428056D1*
X36535Y2440129D1*
X42571Y2452342D1*
X48608Y2470452D1*
Y2500915D1*
X42571Y2519165D1*
X36535Y2531238D1*
X24321Y2543452D1*
X6071Y2549488D1*
X-36465D1*
X87824Y2525061D2*
X100037Y2531238D1*
X118287Y2549348D1*
Y2421879D1*
X230362Y2531238D2*
X224326Y2543311D1*
X206076Y2549348D1*
X194003D1*
X175753Y2543311D1*
X163539Y2525061D1*
X157503Y2494738D1*
Y2464415D1*
X163539Y2440129D1*
X175753Y2427915D1*
X194003Y2421879D1*
X200039D1*
X218149Y2427915D1*
X230362Y2440129D1*
X236399Y2458379D1*
Y2464415D1*
X230362Y2482665D1*
X218149Y2494738D1*
X200039Y2500775D1*
X194003D1*
X175753Y2494738D1*
X163539Y2482665D1*
X157503Y2464415D1*
X1387414Y1997200D2*
Y1869590D1*
X1460273D1*
X1578385Y1997200D2*
X1499489D1*
Y1869590D1*
X1578385D1*
X1499489Y1936413D2*
X1548062D1*
X1617601Y1997200D2*
Y1869590D1*
X1660137D1*
X1678387Y1875767D1*
X1690601Y1887840D1*
X1696637Y1900054D1*
X1702674Y1918163D1*
Y1948627D1*
X1696637Y1966877D1*
X1690601Y1978950D1*
X1678387Y1991163D1*
X1660137Y1997200D1*
X1617601D1*
X1820926Y1954663D2*
X1814749Y1936413D1*
X1802676Y1924200D1*
X1784426Y1918163D1*
X1778390D1*
X1760140Y1924200D1*
X1748067Y1936413D1*
X1741890Y1954663D1*
Y1960700D1*
X1748067Y1978950D1*
X1760140Y1991023D1*
X1778390Y1997060D1*
X1784426D1*
X1802676Y1991023D1*
X1814749Y1978950D1*
X1820926Y1954663D1*
Y1924200D1*
X1814749Y1893877D1*
X1802676Y1875627D1*
X1784426Y1869590D1*
X1772353D1*
X1754103Y1875627D1*
X1748067Y1887840D1*
X2406587Y-269740D2*
X2534196D1*
X2534197Y-196881D1*
X2406587Y-78769D2*
Y-157665D1*
X2534196D1*
Y-78769D1*
X2467373Y-157665D2*
Y-109092D1*
X2406587Y-39553D2*
X2534196Y-39554D1*
Y2983D1*
X2528019Y21233D1*
X2515946Y33446D1*
X2503733Y39483D1*
X2485623Y45520D1*
X2455160D1*
X2436910Y39483D1*
X2424837Y33446D1*
X2412623Y21233D1*
X2406587Y2983D1*
Y-39553D1*
X2431014Y84735D2*
X2424837Y96949D1*
X2406727Y115199D1*
X2534196D1*
X2406727Y190914D2*
X2412764Y172664D1*
X2431014Y160451D1*
X2461337Y154414D1*
X2479587D1*
X2509910Y160451D1*
X2528160Y172664D1*
X2534196Y190914D1*
Y202987D1*
X2528160Y221237D1*
X2509910Y233310D1*
X2479587Y239487D1*
X2461337D1*
X2431014Y233311D1*
X2412764Y221237D1*
X2406727Y202987D1*
Y190914D1*
X2431014Y233311D2*
X2509910Y160451D1*
X1359394Y-1855882D2*
Y-1983491D1*
X1432254D1*
X1550366Y-1855882D2*
X1471469D1*
Y-1983491D1*
X1550366D1*
X1471469Y-1916668D2*
X1520042D1*
X1589581Y-1855882D2*
Y-1983491D1*
X1632118D1*
X1650368Y-1977314D1*
X1662581Y-1965241D1*
X1668618Y-1953028D1*
X1674654Y-1934918D1*
Y-1904455D1*
X1668618Y-1886205D1*
X1662581Y-1874132D1*
X1650368Y-1861918D1*
X1632118Y-1855882D1*
X1589581D1*
X1713870Y-1880309D2*
X1726083Y-1874132D1*
X1744333Y-1856022D1*
Y-1983491D1*
X1783549Y-1880309D2*
X1795763Y-1874132D1*
X1814013Y-1856022D1*
Y-1983491D1*
X-269741Y-2390700D2*
Y-2518310D1*
X-196881D1*
X-78769Y-2390700D2*
X-157665D1*
Y-2518310D1*
X-78769D1*
X-157665Y-2451487D2*
X-109092D1*
X-39554Y-2390700D2*
Y-2518310D1*
X2983D1*
X21233Y-2512133D1*
X33446Y-2500060D1*
X39483Y-2487846D1*
X45519Y-2469737D1*
Y-2439273D1*
X39483Y-2421023D1*
X33446Y-2408950D1*
X21233Y-2396737D1*
X2983Y-2390700D1*
X-39554D1*
X84735Y-2415127D2*
X96949Y-2408950D1*
X115199Y-2390840D1*
Y-2518310D1*
X160591Y-2421164D2*
Y-2415127D1*
X166628Y-2402914D1*
X172664Y-2396877D1*
X184878Y-2390840D1*
X209164D1*
X221237Y-2396877D1*
X227274Y-2402914D1*
X233451Y-2415127D1*
Y-2427200D1*
X227274Y-2439414D1*
X215201Y-2457523D1*
X154414Y-2518310D1*
X239487D1*
X-1820464Y-1876735D2*
Y-2004345D1*
X-1747604D1*
X-1629493Y-1876735D2*
X-1708389D1*
Y-2004345D1*
X-1629493D1*
X-1708389Y-1937522D2*
X-1659816D1*
X-1590277Y-1876735D2*
Y-2004345D1*
X-1547740D1*
X-1529490Y-1998168D1*
X-1517277Y-1986095D1*
X-1511240Y-1973881D1*
X-1505204Y-1955772D1*
Y-1925308D1*
X-1511240Y-1907058D1*
X-1517277Y-1894985D1*
X-1529490Y-1882772D1*
X-1547740Y-1876735D1*
X-1590277D1*
X-1465988Y-1901162D2*
X-1453775Y-1894985D1*
X-1435525Y-1876875D1*
Y-2004345D1*
X-1384096Y-1876875D2*
X-1317413D1*
X-1353772Y-1925449D1*
X-1335522D1*
X-1323449Y-1931485D1*
X-1317413Y-1937522D1*
X-1311236Y-1955772D1*
Y-1967845D1*
X-1317413Y-1986095D1*
X-1329486Y-1998308D1*
X-1347736Y-2004345D1*
X-1365986D1*
X-1384096Y-1998308D1*
X-1390132Y-1992131D1*
X-1396309Y-1980058D1*
X956655Y-657399D2*
Y-602789D1*
X950478Y-584539D1*
X944442Y-578362D1*
X932369Y-572326D1*
X920155D1*
X908082Y-578362D1*
X901905Y-584539D1*
X895869Y-602789D1*
X895868Y-657399D1*
X1023478D1*
X956655Y-614862D2*
X1023478Y-572326D1*
X914119Y-460251D2*
X902045Y-466287D1*
X896009Y-484537D1*
Y-496610D1*
X902045Y-514860D1*
X920295Y-527074D1*
X950619Y-533110D1*
X980942D1*
X1005228Y-527074D1*
X1017442Y-514860D1*
X1023478Y-496610D1*
Y-490574D1*
X1017442Y-472464D1*
X1005228Y-460251D1*
X986978Y-454214D1*
X980942D1*
X962692Y-460251D1*
X950619Y-472464D1*
X944582Y-490574D1*
Y-496610D1*
X950619Y-514860D1*
X962692Y-527074D1*
X980942Y-533110D1*
X956655Y-200161D2*
Y-145551D1*
X950478Y-127301D1*
X944442Y-121124D1*
X932369Y-115088D1*
X920155D1*
X908082Y-121124D1*
X901905Y-127301D1*
X895869Y-145551D1*
X895868Y-200161D1*
X1023478D1*
X956655Y-157624D2*
X1023478Y-115088D1*
X896009Y-3012D2*
Y-63658D1*
X950619Y-69695D1*
X944582Y-63659D1*
X938405Y-45409D1*
Y-27299D1*
X944582Y-9049D1*
X956655Y3164D1*
X974905Y9201D1*
X986978D1*
X1005228Y3164D1*
X1017442Y-9049D1*
X1023478Y-27299D1*
Y-45409D1*
X1017442Y-63659D1*
X1011265Y-69695D1*
X999192Y-75872D1*
X-1798427Y-201559D2*
X-1670817D1*
Y-128700D1*
X-1798426Y-10588D2*
Y-89484D1*
X-1670817D1*
Y-10588D1*
X-1737640Y-89484D2*
Y-40911D1*
X-1798426Y28628D2*
X-1670817D1*
Y71164D1*
X-1676994Y89414D1*
X-1689067Y101628D1*
X-1701280Y107664D1*
X-1719390Y113701D1*
X-1749853D1*
X-1768103Y107664D1*
X-1780176Y101628D1*
X-1792390Y89414D1*
X-1798426Y71164D1*
Y28628D1*
X-1780176Y225776D2*
X-1792250Y219740D1*
X-1798286Y201490D1*
Y189417D1*
X-1792250Y171167D1*
X-1774000Y158953D1*
X-1743676Y152917D1*
X-1713353D1*
X-1689067Y158953D1*
X-1676853Y171167D1*
X-1670817Y189417D1*
Y195453D1*
X-1676853Y213563D1*
X-1689067Y225776D1*
X-1707317Y231813D1*
X-1713353D1*
X-1731603Y225776D1*
X-1743677Y213563D1*
X-1749713Y195453D1*
Y189417D1*
X-1743676Y171167D1*
X-1731603Y158953D1*
X-1713353Y152917D1*
X-1119716Y1802847D2*
Y1675237D1*
X-1046856D1*
X-928745Y1802847D2*
X-1007641D1*
Y1675237D1*
X-928745D1*
X-1007641Y1742060D2*
X-959068D1*
X-889529Y1802847D2*
Y1675237D1*
X-846992D1*
X-828742Y1681414D1*
X-816529Y1693487D1*
X-810492Y1705700D1*
X-804456Y1723810D1*
Y1754274D1*
X-810492Y1772524D1*
X-816529Y1784597D1*
X-828742Y1796810D1*
X-846992Y1802847D1*
X-889529D1*
X-740954Y1675237D2*
X-680167Y1802706D1*
X-765240D1*
X-204578Y1814300D2*
Y1686690D1*
X-131718D1*
X-13606Y1814300D2*
X-92502D1*
Y1686690D1*
X-13606D1*
X-92502Y1753513D2*
X-43929D1*
X25610Y1814300D2*
Y1686690D1*
X68146D1*
X86396Y1692867D1*
X98610Y1704940D1*
X104646Y1717154D1*
X110683Y1735263D1*
Y1765727D1*
X104646Y1783977D1*
X98610Y1796050D1*
X86396Y1808263D1*
X68146Y1814300D1*
X25610D1*
X180221Y1814160D2*
X162112Y1808123D1*
X155935Y1796050D1*
Y1783836D1*
X162112Y1771763D1*
X174185Y1765586D1*
X198471Y1759550D1*
X216721Y1753513D1*
X228794Y1741300D1*
X234831Y1729227D1*
Y1710977D1*
X228794Y1698904D1*
X222758Y1692727D1*
X204508Y1686690D1*
X180221D1*
X162112Y1692727D1*
X155935Y1698904D1*
X149898Y1710977D1*
Y1729227D1*
X155935Y1741300D1*
X168148Y1753513D1*
X186258Y1759550D1*
X210544Y1765586D1*
X222758Y1771763D1*
X228794Y1783836D1*
Y1796050D1*
X222758Y1808123D1*
X204508Y1814160D1*
X180221D1*
X1177434Y1124768D2*
Y997159D1*
X1250293D1*
X1368405Y1124768D2*
X1289509D1*
Y997159D1*
X1368405D1*
X1289509Y1063982D2*
X1338082D1*
X1407621Y1124768D2*
Y997159D1*
X1450157D1*
X1468407Y1003336D1*
X1480621Y1015409D1*
X1486657Y1027622D1*
X1492694Y1045732D1*
Y1076195D1*
X1486657Y1094445D1*
X1480621Y1106518D1*
X1468407Y1118732D1*
X1450157Y1124768D1*
X1407621D1*
X1531910Y1100341D2*
X1544123Y1106518D1*
X1562373Y1124628D1*
Y997159D1*
X1671388Y-204647D2*
X1798998D1*
Y-131788D1*
X1671389Y-13676D2*
Y-92572D1*
X1798998D1*
Y-13676D1*
X1732175Y-92572D2*
Y-43999D1*
X1671389Y25539D2*
X1798998D1*
Y68076D1*
X1792821Y86326D1*
X1780748Y98539D1*
X1768535Y104576D1*
X1750425Y110612D1*
X1719962D1*
X1701712Y104576D1*
X1689639Y98539D1*
X1677425Y86326D1*
X1671389Y68076D1*
Y25539D1*
X1701852Y156005D2*
X1695815D1*
X1683602Y162042D1*
X1677565Y168078D1*
X1671529Y180292D1*
Y204578D1*
X1677565Y216651D1*
X1683602Y222688D1*
X1695815Y228865D1*
X1707888D1*
X1720102Y222688D1*
X1738212Y210615D1*
X1798998Y149828D1*
Y234901D1*
X1188452Y-943530D2*
Y-1071140D1*
X1261312D1*
X1379424Y-943530D2*
X1300527D1*
Y-1071140D1*
X1379424D1*
X1300527Y-1004317D2*
X1349101D1*
X1418639Y-943530D2*
Y-1071140D1*
X1461176D1*
X1479426Y-1064963D1*
X1491639Y-1052890D1*
X1497676Y-1040676D1*
X1503712Y-1022567D1*
Y-992103D1*
X1497676Y-973853D1*
X1491639Y-961780D1*
X1479426Y-949567D1*
X1461176Y-943530D1*
X1418639D1*
X1555142Y-943670D2*
X1621824D1*
X1585465Y-992244D1*
X1603715D1*
X1615788Y-998280D1*
X1621824Y-1004317D1*
X1628001Y-1022567D1*
Y-1034640D1*
X1621824Y-1052890D1*
X1609751Y-1065103D1*
X1591501Y-1071140D1*
X1573251D1*
X1555142Y-1065103D1*
X1549105Y-1058926D1*
X1542928Y-1046853D1*
X-207666Y-1655515D2*
Y-1783125D1*
X-134806D1*
X-16695Y-1655515D2*
X-95591D1*
Y-1783125D1*
X-16695D1*
X-95591Y-1716302D2*
X-47018D1*
X22521Y-1655515D2*
Y-1783125D1*
X65058D1*
X83308Y-1776948D1*
X95521Y-1764875D1*
X101558Y-1752661D1*
X107594Y-1734552D1*
Y-1704088D1*
X101558Y-1685838D1*
X95521Y-1673765D1*
X83308Y-1661552D1*
X65058Y-1655515D1*
X22521D1*
X207596Y-1783125D2*
Y-1655655D1*
X146810Y-1740588D1*
X237919D1*
X-1596251Y-959410D2*
Y-1087020D1*
X-1523392D1*
X-1405280Y-959410D2*
X-1484176D1*
Y-1087020D1*
X-1405280D1*
X-1484176Y-1020197D2*
X-1435603D1*
X-1366064Y-959410D2*
Y-1087020D1*
X-1323527D1*
X-1305277Y-1080843D1*
X-1293064Y-1068770D1*
X-1287027Y-1056556D1*
X-1280991Y-1038447D1*
Y-1007983D1*
X-1287027Y-989733D1*
X-1293064Y-977660D1*
X-1305277Y-965447D1*
X-1323527Y-959410D1*
X-1366064D1*
X-1168916Y-959550D2*
X-1229562D1*
X-1235598Y-1014160D1*
X-1229562Y-1008124D1*
X-1211312Y-1001947D1*
X-1193202D1*
X-1174952Y-1008124D1*
X-1162739Y-1020197D1*
X-1156702Y-1038447D1*
Y-1050520D1*
X-1162739Y-1068770D1*
X-1174952Y-1080983D1*
X-1193202Y-1087020D1*
X-1211312D1*
X-1229562Y-1080983D1*
X-1235598Y-1074806D1*
X-1241775Y-1062733D1*
X-660587Y-2235196D2*
Y-2180586D1*
X-666764Y-2162336D1*
X-672800Y-2156159D1*
X-684873Y-2150123D1*
X-697087D1*
X-709160Y-2156159D1*
X-715337Y-2162336D1*
X-721373Y-2180586D1*
Y-2235196D1*
X-593764D1*
X-660587Y-2192659D2*
X-593764Y-2150123D1*
Y-2050121D2*
X-721233Y-2050120D1*
X-636300Y-2110907D1*
Y-2019797D1*
X-939895Y-1939224D2*
Y-1884614D1*
X-946072Y-1866364D1*
X-952108Y-1860187D1*
X-964181Y-1854151D1*
X-976395D1*
X-988468Y-1860187D1*
X-994645Y-1866364D1*
X-1000681Y-1884614D1*
X-1000682Y-1939224D1*
X-873072D1*
X-939895Y-1896687D2*
X-873072Y-1854151D1*
X-1000541Y-1802722D2*
Y-1736039D1*
X-951968Y-1772399D1*
Y-1754149D1*
X-945931Y-1742076D1*
X-939895Y-1736039D1*
X-921645Y-1729862D1*
X-909572D1*
X-891322Y-1736039D1*
X-879108Y-1748112D1*
X-873072Y-1766362D1*
Y-1784612D1*
X-879108Y-1802722D1*
X-885285Y-1808759D1*
X-897358Y-1814935D1*
X446204Y2168493D2*
X500814D1*
X519064Y2174670D1*
X525240Y2180707D1*
X531277Y2192780D1*
Y2204993D1*
X525240Y2217066D1*
X519064Y2223243D1*
X500814Y2229280D1*
X446204D1*
Y2101670D1*
X488740Y2168493D2*
X531277Y2101670D1*
X570493Y2204853D2*
X582706Y2211030D1*
X600956Y2229140D1*
Y2101670D1*
X930789Y2033757D2*
X985399D1*
X1003649Y2039934D1*
X1009826Y2045970D1*
X1015862Y2058043D1*
Y2070257D1*
X1009826Y2082330D1*
X1003649Y2088507D1*
X985399Y2094543D1*
X930789D1*
Y1966934D1*
X973326Y2033757D2*
X1015862Y1966934D1*
X1061255Y2064080D2*
Y2070116D1*
X1067291Y2082330D1*
X1073328Y2088366D1*
X1085541Y2094403D1*
X1109828D1*
X1121901Y2088366D1*
X1127937Y2082330D1*
X1134114Y2070116D1*
Y2058043D1*
X1127937Y2045830D1*
X1115864Y2027720D1*
X1055078Y1966934D1*
X1140151D1*
X617737Y1350308D2*
X605664Y1344412D1*
X593451Y1332199D1*
X587414Y1319985D1*
X581237Y1301735D1*
Y1271412D1*
X587414Y1253162D1*
X593451Y1241089D1*
X605664Y1228876D1*
X617737Y1222839D1*
X642024D1*
X654237Y1228876D1*
X666310Y1241089D1*
X672347Y1253162D1*
X678524Y1271412D1*
Y1301735D1*
X672347Y1319985D1*
X666310Y1332199D1*
X654237Y1344412D1*
X642024Y1350308D1*
X617737D1*
X635987Y1247126D2*
X672347Y1210626D1*
X717739Y1325881D2*
X729953Y1332058D1*
X748203Y1350168D1*
Y1222699D1*
X-1623928Y698228D2*
X-1532819D1*
X-1514569Y704264D1*
X-1502495Y716478D1*
X-1496319Y734727D1*
X-1496318Y746800D1*
X-1502495Y765050D1*
X-1514569Y777264D1*
X-1532818Y783300D1*
X-1623928Y783301D1*
X-1599501Y822516D2*
X-1605678Y834730D1*
X-1623788Y852980D1*
X-1496319Y852979D1*
X-898458Y437017D2*
X-904495Y449090D1*
X-916708Y461303D1*
X-928781Y467340D1*
X-953068D1*
X-965281Y461303D1*
X-977354Y449090D1*
X-983531Y437017D1*
X-989568Y418767D1*
Y388303D1*
X-983531Y370194D1*
X-977354Y357980D1*
X-965281Y345907D1*
X-953068Y339730D1*
X-928781D1*
X-916708Y345907D1*
X-904495Y357980D1*
X-898458Y370194D1*
X-859242Y442913D2*
X-847029Y449090D1*
X-828779Y467200D1*
Y339730D1*
X-560676Y1611644D2*
X-566713Y1623717D1*
X-578926Y1635930D1*
X-590999Y1641967D1*
X-615286D1*
X-627499Y1635930D1*
X-639572Y1623717D1*
X-645749Y1611644D1*
X-651786Y1593394D1*
Y1562930D1*
X-645749Y1544820D1*
X-639572Y1532607D1*
X-627499Y1520534D1*
X-615286Y1514357D1*
X-590999D1*
X-578926Y1520534D1*
X-566713Y1532607D1*
X-560676Y1544820D1*
X-515284Y1611503D2*
Y1617540D1*
X-509247Y1629753D1*
X-503211Y1635790D1*
X-490997Y1641826D1*
X-466711D1*
X-454637Y1635790D1*
X-448601Y1629753D1*
X-442424Y1617540D1*
Y1605467D1*
X-448601Y1593253D1*
X-460674Y1575144D1*
X-521461Y1514357D1*
X-436387D1*
X1198434Y927427D2*
Y799817D1*
X1240971D1*
X1259221Y805994D1*
X1271434Y818067D1*
X1277471Y830280D1*
X1283507Y848390D1*
Y878854D1*
X1277471Y897104D1*
X1271434Y909177D1*
X1259221Y921390D1*
X1240971Y927427D1*
X1198434D1*
X1383509Y799817D2*
Y927286D1*
X1322723Y842354D1*
X1413833D1*
X6697Y471710D2*
X-5376Y483923D1*
X-23626Y489960D1*
X-47913D1*
X-66163Y483923D1*
X-78376Y471710D1*
Y459637D1*
X-72199Y447423D1*
X-66163Y441387D1*
X-54090Y435350D1*
X-17590Y423137D1*
X-5376Y417100D1*
X660Y410923D1*
X6697Y398850D1*
Y380600D1*
X-5376Y368527D1*
X-23626Y362350D1*
X-47913D1*
X-66163Y368527D1*
X-78376Y380600D1*
X45913Y465533D2*
X58126Y471710D1*
X76376Y489820D1*
Y362350D1*
M02*
